<svg width="32" height="33" fill="none" xmlns="http://www.w3.org/2000/svg"><path d="M21.148 6.414H10.852a5.248 5.248 0 00-5.243 5.242v10.297a5.248 5.248 0 005.243 5.242h10.296a5.247 5.247 0 005.242-5.242V11.656a5.248 5.248 0 00-5.242-5.242zm2.981 15.54a2.984 2.984 0 01-2.98 2.98H10.851a2.984 2.984 0 01-2.98-2.98V11.655a2.984 2.984 0 012.98-2.98h10.296a2.984 2.984 0 012.981 2.98v10.297z" fill="#7E7E7E"/><path d="M21.524 12.56a1.268 1.268 0 01-1.266-1.267 1.268 1.268 0 012.533 0c0 .698-.568 1.266-1.267 1.266zM16 11.453a5.358 5.358 0 00-5.352 5.352A5.358 5.358 0 0016 22.157a5.358 5.358 0 005.352-5.352A5.358 5.358 0 0016 11.453zm0 8.443a3.095 3.095 0 01-3.09-3.091 3.094 3.094 0 013.09-3.09 3.094 3.094 0 013.09 3.09 3.094 3.094 0 01-3.09 3.09z" fill="#7E7E7E"/></svg>