<svg width="30" height="43" fill="none" xmlns="http://www.w3.org/2000/svg"><path d="M14.946 43H15c8.27 0 15-6.751 15-15.05v-12.9C30 6.792 23.3.056 15.04 0h-.128C6.684.047 0 6.788 0 15.05v12.9C0 36.249 6.705 43 14.946 43zM4.286 15.05a10.783 10.783 0 013.13-7.586A10.711 10.711 0 0114.969 4.3c5.925.013 10.746 4.835 10.746 10.75v12.9c0 5.928-4.806 10.75-10.714 10.75h-.054c-5.976 0-10.66-4.721-10.66-10.75v-12.9z" fill="#2A77FF"/><path d="M12.857 10.75c0-1.187.96-2.15 2.143-2.15 1.183 0 2.143.963 2.143 2.15v8.6c0 1.187-.96 2.15-2.143 2.15a2.146 2.146 0 01-2.143-2.15v-8.6z" fill="#2A77FF"/></svg>