<svg width="71" height="27" viewBox="0 0 71 27" fill="none" xmlns="http://www.w3.org/2000/svg">
<path d="M7 7C7 7 10.8898 16.4526 17.2981 20.3834C23.2431 24.03 28.1778 25.1865 36.0769 25.8204C44.6948 26.512 49.8402 25.1362 57.8846 22.8928C62.8913 21.4965 70 18.2922 70 18.2922" stroke="white" stroke-linecap="round" stroke-linejoin="round" stroke-dasharray="2 2"/>
<path d="M4.84754 2.31442L2.3903 9.68477C2.31426 9.9266 2.43601 10.2129 2.66225 10.3243C2.88295 10.433 3.12274 10.3352 3.20453 10.1032L5.517 3.1671L12.0199 6.50908C12.2448 6.62461 12.4919 6.52387 12.5718 6.28407C12.6518 6.04423 12.5343 5.75618 12.3095 5.64062L5.39943 2.08941C5.17457 1.9739 4.92751 2.07462 4.84754 2.31442Z" fill="white"/>
</svg>
