<svg width="88" height="88" viewBox="0 0 88 88" fill="none" xmlns="http://www.w3.org/2000/svg">
<g clip-path="url(#clip0)">
<path d="M87.2444 0.75562C86.2377 -0.251222 84.6051 -0.251222 83.5983 0.75562L76.0891 8.26482C75.6274 8.04482 75.1403 7.86762 74.6317 7.74061L51.2961 1.97541C48.6757 1.3204 45.8611 2.09985 43.9511 4.00989L2.26166 45.6307C-0.753885 48.6464 -0.753885 53.5535 2.26166 56.5693L31.431 85.7385C34.4467 88.7542 39.3538 88.7544 42.3696 85.7385L83.9905 44.049C85.9005 42.1389 86.6801 39.3243 86.0248 36.7037L80.2598 13.3683C80.1326 12.8599 79.9555 12.3726 79.7355 11.911L87.2448 4.40177C88.2513 3.39493 88.2512 1.76246 87.2444 0.75562ZM81.022 37.9546C81.2405 38.8281 80.9806 39.7662 80.344 40.403L38.7232 82.0924C37.7179 83.0977 36.0821 83.0977 35.0768 82.0924L5.90763 52.923C4.90234 51.9177 4.90234 50.282 5.90763 49.2767L47.5972 7.65604C48.0848 7.16844 48.7493 6.90186 49.4261 6.90186C49.6331 6.90186 49.8412 6.92678 50.0456 6.97783L71.9647 12.389L65.7558 18.5979C62.8812 17.2288 59.3304 17.731 56.9541 20.1073C53.9382 23.1232 53.9382 28.0301 56.9541 31.046C58.4618 32.5538 60.4426 33.3078 62.4233 33.3078C64.4038 33.3078 66.3847 32.554 67.8923 31.046C70.2692 28.6693 70.7712 25.1187 69.4018 22.2441L75.6107 16.0351L81.022 37.9546ZM64.2464 27.4C63.2412 28.4051 61.6055 28.4053 60.6002 27.4C59.5951 26.3949 59.5951 24.7589 60.6002 23.7538C61.103 23.2511 61.763 23 62.4233 23C63.0833 23 63.7436 23.2513 64.246 23.7537L64.2462 23.7538L64.2464 23.754C65.2517 24.7591 65.2515 26.3949 64.2464 27.4Z" fill="#074C73"/>
<path d="M42.3697 31.0455C39.354 28.0298 34.447 28.0298 31.4311 31.0455C28.4155 34.0612 28.4155 38.9682 31.4311 41.9841C34.4468 44.9998 39.354 44.9998 42.3697 41.9841C45.3856 38.9682 45.3856 34.0614 42.3697 31.0455ZM38.7237 38.3378C37.7184 39.3431 36.0827 39.3431 35.0776 38.3378C34.0725 37.3325 34.0721 35.6968 35.0774 34.6916C36.0827 33.6865 37.7183 33.6863 38.7237 34.6916C39.7289 35.6968 39.7289 37.3325 38.7237 38.3378Z" fill="#074C73"/>
<path d="M46.0158 56.569C42.993 53.5462 38.1006 53.5459 35.0773 56.569C32.0615 59.5848 32.0615 64.4917 35.0773 67.5076C38.1003 70.5303 42.9927 70.5309 46.0158 67.5076C49.0317 64.4917 49.0317 59.5848 46.0158 56.569ZM42.3696 63.8614C41.3623 64.869 39.731 64.8691 38.7235 63.8614C37.7184 62.8563 37.7184 61.2204 38.7235 60.2153C39.731 59.2078 41.3621 59.2076 42.3696 60.2153C43.3748 61.2204 43.3748 62.856 42.3696 63.8614Z" fill="#074C73"/>
<path d="M57.6938 47.1689C57.5365 45.7536 56.2615 44.7337 54.8465 44.891L22.0312 48.5371C20.6159 48.6944 19.596 49.969 19.7533 51.3844C19.8999 52.7029 21.0161 53.6783 22.3127 53.6783C22.4077 53.6783 22.504 53.6729 22.6006 53.6623L55.4161 50.0161C56.8313 49.8587 57.8512 48.5841 57.6938 47.1689Z" fill="#074C73"/>
</g>
<defs>
<clipPath id="clip0">
<rect width="88" height="88" fill="white"/>
</clipPath>
</defs>
</svg>
