<svg width="82" height="80" viewBox="0 0 82 80" fill="none" xmlns="http://www.w3.org/2000/svg">
<g clip-path="url(#clip0)">
<path d="M21.8977 79.9998C4.14517 79.9998 0 65.1787 0 48.9939C0 33.1193 4.44657 18.1816 21.8977 18.1816C39.4326 18.1816 43.7955 33.2636 43.7955 49.11C43.7955 65.0246 39.383 79.9998 21.8977 79.9998ZM21.8977 21.8038C9.8419 21.8038 3.9814 30.6978 3.9814 48.9939C3.9814 62.7942 6.76932 76.3776 21.8977 76.3776C33.9536 76.3776 39.814 67.4583 39.814 49.11C39.814 30.7358 33.9536 21.8038 21.8977 21.8038ZM21.8977 70.8588C16.9065 70.8588 14.6995 67.5992 13.4491 63.2972C12.6729 60.636 12.2955 55.995 12.2955 49.1101C12.2955 42.2283 12.7134 37.4309 13.5733 34.4434C14.9065 29.7212 17.7081 27.3226 21.8977 27.3226C28.13 27.3226 29.7399 32.8433 30.346 34.9216C31.1226 37.5934 31.4999 42.234 31.4999 49.11C31.4999 55.9828 31.0822 60.7673 30.2227 63.7363C28.8826 68.4623 26.0817 70.8588 21.8977 70.8588ZM21.8977 30.9448C20.3024 30.9448 18.5238 31.4684 17.4271 35.3526C16.6631 38.0073 16.2769 42.6331 16.2769 49.1099C16.2769 55.5857 16.6204 60.0469 17.2977 62.3695C18.481 66.4403 19.8803 67.2365 21.8977 67.2365C23.4911 67.2365 25.2682 66.7126 26.3687 62.8274L26.3715 62.8175C27.1326 60.1914 27.5185 55.5796 27.5185 49.1099C27.5185 42.6418 27.1749 38.1802 26.4973 35.8489C25.3065 31.7654 23.8545 30.9448 21.8977 30.9448Z" fill="#074C73"/>
<g clip-path="url(#clip1)">
<path d="M80.0298 63.9027C78.7175 62.4184 76.9193 61.6762 74.6331 61.6762C73.0973 61.6762 71.7604 62.0243 70.6204 62.7264C69.4844 63.4306 68.6397 64.4268 68.0983 65.7151C67.555 67.0013 67.2823 68.3716 67.2823 69.8199C67.2823 71.2682 67.557 72.6345 68.0983 73.9228C68.6397 75.2111 69.4865 76.2073 70.6204 76.9074C71.7604 77.6096 73.0973 77.9636 74.6331 77.9636C76.9193 77.9636 78.7175 77.2175 80.0298 75.7352C81.3421 74.2529 82.0003 72.2804 82.0003 69.8199C82.0003 67.3614 81.3421 65.381 80.0298 63.9027ZM76.9049 74.2088C76.4087 74.759 75.6829 75.037 74.7376 75.037C73.7801 75.037 73.0747 74.759 72.5949 74.2088C71.8322 73.3507 71.4549 71.9744 71.4549 70.082C71.4549 68.1836 71.8322 66.8033 72.5949 65.9511C73.0747 65.387 73.7801 65.1049 74.7376 65.1049C75.6829 65.1049 76.4067 65.377 76.9049 65.9271C77.6656 66.8013 78.047 68.1836 78.047 70.082C78.047 71.9744 77.6656 73.3527 76.9049 74.2088ZM57.4751 47.8993C56.1628 46.415 54.3646 45.6729 52.0783 45.6729C50.5426 45.6729 49.2057 46.0209 48.0656 46.7231C46.9297 47.4272 46.0849 48.4234 45.5436 49.7117C45.0002 50.998 44.7275 52.3683 44.7275 53.8166C44.7275 55.2649 45.0023 56.6332 45.5436 57.9194C46.087 59.2077 46.9318 60.2039 48.0656 60.9041C49.2057 61.6062 50.5426 61.9623 52.0783 61.9623C54.3646 61.9623 56.1628 61.2161 57.4751 59.7318C58.7873 58.2495 59.4455 56.2771 59.4455 53.8166C59.4455 51.356 58.7873 49.3776 57.4751 47.8993ZM54.3502 58.2055C53.854 58.7556 53.1282 59.0337 52.1829 59.0337C51.2254 59.0337 50.52 58.7556 50.0402 58.2055C49.2774 57.3473 48.9002 55.971 48.9002 54.0786C48.9002 52.1822 49.2774 50.8019 50.0402 49.9478C50.52 49.3816 51.2254 49.1016 52.1829 49.1016C53.1282 49.1016 53.852 49.3736 54.3502 49.9257C55.1109 50.7979 55.4923 52.1822 55.4923 54.0786C55.4923 55.973 55.1109 57.3493 54.3502 58.2055ZM74.5572 45.8169L56.7574 77.9276H52.3613L70.116 45.8169H74.5572Z" fill="#074C73"/>
</g>
</g>
<defs>
<clipPath id="clip0">
<rect width="82" height="80" fill="white"/>
</clipPath>
<clipPath id="clip1">
<rect width="37.2727" height="36.3636" fill="white" transform="translate(44.7275 43.6362)"/>
</clipPath>
</defs>
</svg>
