<svg width="16" height="16" viewBox="0 0 16 16" fill="none" xmlns="http://www.w3.org/2000/svg">
<g clip-path="url(#clip0)">
<path d="M10.606 8.08183L16 11.4918V4.52783L10.606 8.08183Z" fill="#074C73"/>
<path d="M0 4.52783V11.4918L5.394 8.08183L0 4.52783Z" fill="#074C73"/>
<path d="M14.9998 2.5H0.999785C0.500785 2.5 0.104785 2.872 0.0297852 3.351L7.99978 8.602L15.9698 3.351C15.8948 2.872 15.4988 2.5 14.9998 2.5Z" fill="#074C73"/>
<path d="M9.69023 8.68606L8.27523 9.61806C8.19123 9.67306 8.09623 9.70006 8.00023 9.70006C7.90423 9.70006 7.80923 9.67306 7.72523 9.61806L6.31023 8.68506L0.0322266 12.6561C0.109227 13.1311 0.503227 13.5001 1.00023 13.5001H15.0002C15.4972 13.5001 15.8912 13.1311 15.9682 12.6561L9.69023 8.68606Z" fill="#074C73"/>
</g>
<defs>
<clipPath id="clip0">
<rect width="16" height="16" fill="white"/>
</clipPath>
</defs>
</svg>
