<svg width="20" height="20" fill="none" xmlns="http://www.w3.org/2000/svg"><path fill-rule="evenodd" clip-rule="evenodd" d="M4.375 17.5a.625.625 0 01-.625-.625V3.125a.625.625 0 01.938-.544l11.875 6.875a.625.625 0 010 1.082L4.688 17.413a.624.624 0 01-.313.087zM5 4.206v11.588L15 10 5 4.206z" fill="#fff"/><mask id="mask0" maskUnits="userSpaceOnUse" x="3" y="2" width="14" height="16"><path fill-rule="evenodd" clip-rule="evenodd" d="M4.375 17.5a.625.625 0 01-.625-.625V3.125a.625.625 0 01.938-.544l11.875 6.875a.625.625 0 010 1.082L4.688 17.413a.624.624 0 01-.313.087zM5 4.206v11.588L15 10 5 4.206z" fill="#fff"/></mask></svg>