<svg width="18" height="24" viewBox="0 0 18 24" fill="none" xmlns="http://www.w3.org/2000/svg">
<path d="M1.51625 0.956076C1.82294 0.798149 2.16725 0.727892 2.5113 0.753034C2.85534 0.778176 3.18578 0.897742 3.46625 1.09858L16.5913 10.4736C16.8343 10.647 17.0324 10.876 17.1691 11.1415C17.3058 11.407 17.3771 11.7012 17.3771 11.9998C17.3771 12.2984 17.3058 12.5927 17.1691 12.8582C17.0324 13.1236 16.8343 13.3526 16.5913 13.5261L3.46625 22.9011C3.18588 23.1017 2.8556 23.2212 2.51173 23.2464C2.16786 23.2715 1.82372 23.2013 1.51714 23.0436C1.21056 22.8858 0.953408 22.6466 0.773962 22.3522C0.594516 22.0578 0.499721 21.7196 0.500001 21.3748V2.62483C0.49964 2.28014 0.594302 1.94202 0.773586 1.64762C0.95287 1.35322 1.20984 1.11394 1.51625 0.956076Z" fill="#EC671A"/>
</svg>
