<svg width="25" height="23" viewBox="0 0 25 23" fill="none" xmlns="http://www.w3.org/2000/svg">
<path d="M0.432416 11.1292L6.54596 14.2979C6.78241 14.4193 7.06158 14.4106 7.28762 14.273L12.7293 10.9829L9.43554 14.0184C9.26783 14.1734 9.172 14.3944 9.172 14.6273V22.021C9.172 22.801 10.1293 23.1293 10.5782 22.5096L13.221 18.8555L19.7564 22.7263C20.2147 23.0004 20.8022 22.7252 20.9085 22.1803L24.9845 1.05527C25.1064 0.420439 24.4991 -0.0973938 23.9345 0.138773L0.496999 9.64502C-0.132168 9.90069 -0.172793 10.8161 0.432416 11.1292ZM23.172 2.19277L19.5897 20.7579L13.397 17.0897C13.0595 16.8893 12.6251 16.9781 12.3855 17.3074L10.7345 19.59V14.9924L19.6418 6.78502C20.347 6.13611 19.5366 4.98236 18.7314 5.47419L6.86679 12.648L2.70846 10.4933L23.172 2.19277Z" fill="#494596"/>
</svg>
