<svg width="21" height="21" viewBox="0 0 21 21" fill="none" xmlns="http://www.w3.org/2000/svg">
<path d="M13.6809 12.2903V15.6417C13.6809 15.812 13.819 15.95 13.9892 15.95C14.1594 15.95 14.2974 15.812 14.2974 15.6417V12.0675C14.2974 11.9311 14.2078 11.8109 14.077 11.7721C13.379 11.5644 12.7511 11.1286 12.3089 10.5447C11.8521 9.94161 11.6106 9.22171 11.6106 8.46292C11.6106 6.55938 13.1593 5.01076 15.0628 5.01076C15.4184 5.01076 15.7665 5.0649 16.0968 5.16834C16.0038 5.52333 15.8577 5.85961 15.666 6.16715C15.4897 6.08381 15.2929 6.03697 15.0853 6.03697C14.3336 6.03697 13.722 6.64855 13.722 7.40033C13.722 8.15206 14.3335 8.76364 15.0853 8.76364C15.8371 8.76364 16.4487 8.15206 16.4487 7.40033C16.4487 7.07999 16.3374 6.78538 16.1518 6.55241C16.3793 6.20041 16.5545 5.8147 16.6702 5.40697C17.0731 5.61906 17.4349 5.91158 17.7326 6.27428C17.8406 6.40586 18.0349 6.42493 18.1664 6.31694C18.298 6.20895 18.3171 6.01474 18.2091 5.88312C17.8195 5.4084 17.3366 5.03528 16.7977 4.78131C16.8199 4.60532 16.832 4.42678 16.832 4.24614C16.832 1.90485 14.9271 0 12.5857 0C10.2444 0 8.33955 1.90485 8.33955 4.24618C8.33955 4.8834 8.48422 5.51525 8.75841 6.08586C7.89819 7.36157 7.82206 9.04509 8.60542 10.3987L5.77723 13.2269C5.65685 13.3473 5.65685 13.5425 5.77723 13.6629C5.89761 13.7832 6.09276 13.7832 6.21314 13.6629L9.21413 10.6619C9.31798 10.558 9.33414 10.3953 9.25273 10.2731C8.34575 8.91089 8.52876 7.08094 9.68786 5.92188C10.5418 5.06789 11.7765 4.73447 12.9236 5.00366C12.5172 5.25587 12.1582 5.57743 11.8636 5.95198C11.316 6.01199 10.8055 6.25542 10.4135 6.64744C9.46757 7.59335 9.46757 9.13242 10.4135 10.0784C10.7676 10.4324 11.2092 10.6623 11.6977 10.7494C11.7363 10.806 11.7758 10.862 11.8174 10.917C12.0647 11.2434 12.3617 11.5302 12.6932 11.768C11.838 11.9094 10.9504 11.7264 10.2184 11.2389C10.0961 11.1576 9.93342 11.1736 9.82961 11.2775L7.00478 14.1023C6.8844 14.2227 6.8844 14.4179 7.00478 14.5382L7.67248 15.206C7.84134 15.368 7.84134 15.6595 7.67244 15.8215C7.51042 15.9903 7.21888 15.9904 7.05691 15.8214L6.38922 15.1538C6.26884 15.0334 6.07369 15.0334 5.95331 15.1538L5.15367 15.9534C5.03427 16.0682 5.03427 16.2745 5.15367 16.3894L5.82132 17.057C5.99104 17.2267 5.99104 17.5028 5.82136 17.6725C5.65164 17.8423 5.37552 17.8422 5.20584 17.6725L4.53814 17.0048C4.41776 16.8845 4.22261 16.8845 4.10223 17.0048L3.22765 17.8794C3.05793 18.0491 2.78181 18.049 2.61213 17.8794C2.44241 17.7097 2.44241 17.4335 2.61213 17.2638L5.34131 14.5347C5.46169 14.4142 5.46169 14.2191 5.34131 14.0987C5.22093 13.9784 5.02578 13.9784 4.9054 14.0987L2.17618 16.8279C1.76614 17.238 1.76614 17.9052 2.17618 18.3153C2.58625 18.7253 3.25345 18.7253 3.66353 18.3153L4.32015 17.6587L4.76992 18.1085C5.17996 18.5185 5.8472 18.5185 6.25727 18.1084C6.66731 17.6984 6.66731 17.0312 6.25727 16.621L5.80754 16.1714L6.17126 15.8076L6.621 16.2573C7.01249 16.6654 7.7169 16.6653 8.10839 16.2574C8.51637 15.8659 8.51641 15.1614 8.10839 14.77L7.65865 14.3202L10.0928 11.8861C11.1122 12.4758 12.3474 12.5943 13.4669 12.2049C13.5375 12.2352 13.6087 12.2641 13.6809 12.2903ZM15.0853 6.65343C15.1526 6.65343 15.2175 6.66319 15.2796 6.67993C15.0132 6.97479 14.6969 7.2274 14.3396 7.42448C14.3394 7.41636 14.3384 7.40845 14.3384 7.40028C14.3384 6.98849 14.6735 6.65343 15.0853 6.65343ZM15.8322 7.40037C15.8322 7.81216 15.4971 8.14722 15.0853 8.14722C14.906 8.14722 14.7413 8.08361 14.6124 7.97787C15.0489 7.74092 15.4342 7.43367 15.7557 7.07306C15.8042 7.17203 15.8322 7.28286 15.8322 7.40037ZM9.25195 5.48592C9.23271 5.50516 9.21446 5.52505 9.19567 5.54462C9.03821 5.13233 8.95598 4.69083 8.95598 4.24622C8.95598 2.24479 10.5843 0.616506 12.5857 0.616506C14.5871 0.616506 16.2154 2.24479 16.2154 4.24622C16.2154 4.3504 16.2105 4.45372 16.2018 4.55622C15.8362 4.44999 15.4534 4.39433 15.0627 4.39433C14.5946 4.39433 14.1447 4.47407 13.7258 4.62025C12.2075 3.97302 10.425 4.31283 9.25195 5.48592ZM11.3915 6.7102C11.2634 6.97754 11.1636 7.26096 11.0961 7.55651C10.9428 7.48744 10.7943 7.40824 10.6517 7.31825C10.7101 7.23585 10.7756 7.15706 10.8493 7.08332C11.0075 6.9252 11.1914 6.79949 11.3915 6.7102ZM10.8494 9.64236C10.3724 9.16539 10.2184 8.48626 10.3864 7.87824C10.5836 7.99792 10.7898 8.10108 11.0038 8.18696C10.9976 8.27818 10.9942 8.37018 10.9942 8.46296C10.9942 8.98394 11.0915 9.48917 11.2787 9.96097C11.1224 9.87779 10.9781 9.77111 10.8494 9.64236Z" fill="#0F5780"/>
<path d="M18.8755 7.0394C18.816 6.87989 18.6384 6.79901 18.4789 6.85857C18.3194 6.91812 18.2385 7.09568 18.298 7.25519C18.4421 7.64077 18.5151 8.04716 18.5151 8.46297C18.5151 9.96164 17.5586 11.2807 16.1348 11.7453C16.008 11.7867 15.9222 11.9049 15.9222 12.0383V13.7498L15.049 14.4269C14.8916 14.5426 14.8916 14.7983 15.049 14.914L15.7274 15.4401L15.049 15.9663C14.8916 16.082 14.8916 16.3377 15.049 16.4534L15.7274 16.9795L15.049 17.5056C14.8915 17.6213 14.8916 17.8771 15.049 17.9928L15.9221 18.6699V19.4096L15.0739 20.2498L14.2976 19.4168V16.8747C14.2976 16.7044 14.1596 16.5664 13.9894 16.5664C13.8192 16.5664 13.6812 16.7044 13.6812 16.8747V19.5382C13.6812 19.6161 13.7107 19.6912 13.7639 19.7483L14.8396 20.9027C14.9524 21.0287 15.1643 21.033 15.2821 20.9115L16.4474 19.7571C16.5058 19.6993 16.5387 19.6204 16.5387 19.5382V18.519C16.5387 18.4237 16.4946 18.3338 16.4193 18.2754L15.7409 17.7493L16.4193 17.2232C16.5768 17.1075 16.5767 16.8517 16.4193 16.736L15.7409 16.2099L16.4193 15.6838C16.5768 15.5681 16.5767 15.3123 16.4193 15.1966L15.7409 14.6705L16.4193 14.1444C16.4946 14.086 16.5387 13.9961 16.5387 13.9008V12.2555C18.0987 11.6502 19.1316 10.1536 19.1316 8.46297C19.1316 7.97325 19.0455 7.49427 18.8755 7.0394Z" fill="#0F5780"/>
</svg>
