<svg width="16" height="16" viewBox="0 0 16 16" fill="none" xmlns="http://www.w3.org/2000/svg">
<path d="M15.1831 4.25085C15.0103 3.60825 14.5036 3.10168 13.8611 2.92865C12.6873 2.60748 7.992 2.60748 7.992 2.60748C7.992 2.60748 3.29691 2.60748 2.12311 2.91647C1.49295 3.08932 0.973938 3.60834 0.801086 4.25085C0.492188 5.42456 0.492188 7.85867 0.492188 7.85867C0.492188 7.85867 0.492188 10.3051 0.801086 11.4665C0.974121 12.109 1.48059 12.6156 2.1232 12.7886C3.30926 13.1099 7.99219 13.1099 7.99219 13.1099C7.99219 13.1099 12.6873 13.1099 13.8611 12.8009C14.5037 12.6279 15.0103 12.1214 15.1833 11.4789C15.4921 10.3051 15.4921 7.87103 15.4921 7.87103C15.4921 7.87103 15.5045 5.42456 15.1831 4.25085ZM6.49713 10.1074V5.60995L10.4015 7.85867L6.49713 10.1074Z" fill="white"/>
</svg>
